<mxfile host="Electron" agent="Mozilla/5.0 (Macintosh; Intel Mac OS X 10_15_7) AppleWebKit/537.36 (KHTML, like Gecko) draw.io/26.2.15 Chrome/134.0.6998.205 Electron/35.2.1 Safari/537.36" version="26.2.15">
  <diagram name="Page-1" id="hh5Uxqu39lBJHwbC1pjm">
    <mxGraphModel dx="678" dy="504" grid="1" gridSize="10" guides="1" tooltips="1" connect="1" arrows="1" fold="1" page="1" pageScale="1" pageWidth="850" pageHeight="1100" math="0" shadow="0">
      <root>
        <mxCell id="0" />
        <mxCell id="1" parent="0" />
        <mxCell id="NWXqaKzSs_AKC4-fesMb-2" value="&lt;font style=&quot;font-size: 18px;&quot;&gt;&lt;b&gt;Route Compute (RC)&lt;/b&gt;&lt;/font&gt;" style="text;html=1;align=center;verticalAlign=middle;resizable=0;points=[];autosize=1;strokeColor=none;fillColor=none;" vertex="1" parent="1">
          <mxGeometry y="260" width="200" height="40" as="geometry" />
        </mxCell>
        <mxCell id="NWXqaKzSs_AKC4-fesMb-4" value="&lt;font style=&quot;font-size: 16px;&quot;&gt;Routing Type&lt;/font&gt;" style="text;html=1;align=center;verticalAlign=middle;resizable=0;points=[];autosize=1;strokeColor=none;fillColor=none;rounded=1;arcSize=0;" vertex="1" parent="1">
          <mxGeometry x="235" y="141" width="120" height="30" as="geometry" />
        </mxCell>
        <mxCell id="NWXqaKzSs_AKC4-fesMb-5" value="" style="endArrow=classic;html=1;rounded=0;exitX=0.975;exitY=0.333;exitDx=0;exitDy=0;exitPerimeter=0;entryX=-0.027;entryY=0.5;entryDx=0;entryDy=0;entryPerimeter=0;" edge="1" parent="1" source="NWXqaKzSs_AKC4-fesMb-4" target="NWXqaKzSs_AKC4-fesMb-6">
          <mxGeometry width="50" height="50" relative="1" as="geometry">
            <mxPoint x="470" y="-10" as="sourcePoint" />
            <mxPoint x="591" y="-10" as="targetPoint" />
          </mxGeometry>
        </mxCell>
        <mxCell id="NWXqaKzSs_AKC4-fesMb-6" value="&lt;font style=&quot;font-size: 16px;&quot;&gt;Deterministic&amp;nbsp;&lt;/font&gt;&lt;span style=&quot;font-size: 16px;&quot;&gt;routing e.g: Dimension order (DOR)&lt;/span&gt;" style="text;html=1;align=center;verticalAlign=middle;resizable=0;points=[];autosize=1;strokeColor=none;fillColor=none;" vertex="1" parent="1">
          <mxGeometry x="460" y="20" width="370" height="30" as="geometry" />
        </mxCell>
        <mxCell id="NWXqaKzSs_AKC4-fesMb-7" value="" style="endArrow=classic;html=1;rounded=0;exitX=0.996;exitY=0.441;exitDx=0;exitDy=0;exitPerimeter=0;entryX=-0.029;entryY=0.433;entryDx=0;entryDy=0;entryPerimeter=0;" edge="1" parent="1" source="NWXqaKzSs_AKC4-fesMb-4" target="NWXqaKzSs_AKC4-fesMb-8">
          <mxGeometry width="50" height="50" relative="1" as="geometry">
            <mxPoint x="470" y="60" as="sourcePoint" />
            <mxPoint x="591" y="60" as="targetPoint" />
          </mxGeometry>
        </mxCell>
        <mxCell id="NWXqaKzSs_AKC4-fesMb-8" value="&lt;font style=&quot;font-size: 16px;&quot;&gt;Adaptive&amp;nbsp;&lt;/font&gt;&lt;span style=&quot;font-size: 16px;&quot;&gt;routing&amp;nbsp;&lt;/span&gt;&lt;span style=&quot;font-size: 16px;&quot;&gt;e.g: min_adapt, chaos&lt;/span&gt;" style="text;html=1;align=center;verticalAlign=middle;resizable=0;points=[];autosize=1;strokeColor=none;fillColor=none;" vertex="1" parent="1">
          <mxGeometry x="460" y="90" width="300" height="30" as="geometry" />
        </mxCell>
        <mxCell id="NWXqaKzSs_AKC4-fesMb-10" value="" style="endArrow=classic;html=1;rounded=0;exitX=1;exitY=0.6;exitDx=0;exitDy=0;exitPerimeter=0;entryX=-0.012;entryY=0.433;entryDx=0;entryDy=0;entryPerimeter=0;" edge="1" parent="1" source="NWXqaKzSs_AKC4-fesMb-2" target="NWXqaKzSs_AKC4-fesMb-4">
          <mxGeometry width="50" height="50" relative="1" as="geometry">
            <mxPoint x="219" y="100" as="sourcePoint" />
            <mxPoint x="246.94000000000005" y="214" as="targetPoint" />
          </mxGeometry>
        </mxCell>
        <mxCell id="NWXqaKzSs_AKC4-fesMb-18" value="" style="endArrow=classic;html=1;rounded=0;exitX=1.001;exitY=0.621;exitDx=0;exitDy=0;exitPerimeter=0;entryX=0;entryY=0.467;entryDx=0;entryDy=0;entryPerimeter=0;" edge="1" parent="1" source="NWXqaKzSs_AKC4-fesMb-4" target="NWXqaKzSs_AKC4-fesMb-23">
          <mxGeometry width="50" height="50" relative="1" as="geometry">
            <mxPoint x="414.99999999999994" y="220" as="sourcePoint" />
            <mxPoint x="540" y="220" as="targetPoint" />
          </mxGeometry>
        </mxCell>
        <mxCell id="NWXqaKzSs_AKC4-fesMb-20" value="" style="endArrow=classic;html=1;rounded=0;entryX=0;entryY=0.5;entryDx=0;entryDy=0;entryPerimeter=0;exitX=0.985;exitY=0.8;exitDx=0;exitDy=0;exitPerimeter=0;" edge="1" parent="1" source="NWXqaKzSs_AKC4-fesMb-4" target="NWXqaKzSs_AKC4-fesMb-24">
          <mxGeometry width="50" height="50" relative="1" as="geometry">
            <mxPoint x="380" y="160" as="sourcePoint" />
            <mxPoint x="500" y="324" as="targetPoint" />
          </mxGeometry>
        </mxCell>
        <mxCell id="NWXqaKzSs_AKC4-fesMb-23" value="&lt;font style=&quot;font-size: 16px;&quot;&gt;Oblivious&amp;nbsp;&lt;/font&gt;&lt;span style=&quot;font-size: 16px;&quot;&gt;routing&amp;nbsp;&lt;/span&gt;&lt;span style=&quot;font-size: 16px;&quot;&gt;e.g: Valiant, Valiant Non-Intermediate&lt;/span&gt;" style="text;html=1;align=center;verticalAlign=middle;resizable=0;points=[];autosize=1;strokeColor=none;fillColor=none;" vertex="1" parent="1">
          <mxGeometry x="460" y="160" width="410" height="30" as="geometry" />
        </mxCell>
        <mxCell id="NWXqaKzSs_AKC4-fesMb-24" value="&lt;font style=&quot;font-size: 16px;&quot;&gt;Source routing&lt;/font&gt;" style="text;html=1;align=center;verticalAlign=middle;resizable=0;points=[];autosize=1;strokeColor=none;fillColor=none;" vertex="1" parent="1">
          <mxGeometry x="460" y="230" width="130" height="30" as="geometry" />
        </mxCell>
        <mxCell id="NWXqaKzSs_AKC4-fesMb-26" value="&lt;font style=&quot;font-size: 16px;&quot;&gt;Routing Optmization&lt;/font&gt;" style="text;html=1;align=center;verticalAlign=middle;resizable=0;points=[];autosize=1;strokeColor=none;fillColor=none;rounded=1;arcSize=0;" vertex="1" parent="1">
          <mxGeometry x="235" y="410" width="170" height="30" as="geometry" />
        </mxCell>
        <mxCell id="NWXqaKzSs_AKC4-fesMb-27" value="" style="endArrow=classic;html=1;rounded=0;exitX=0.998;exitY=0.779;exitDx=0;exitDy=0;exitPerimeter=0;entryX=-0.012;entryY=0.552;entryDx=0;entryDy=0;entryPerimeter=0;" edge="1" parent="1" source="NWXqaKzSs_AKC4-fesMb-2" target="NWXqaKzSs_AKC4-fesMb-26">
          <mxGeometry width="50" height="50" relative="1" as="geometry">
            <mxPoint x="225" y="224" as="sourcePoint" />
            <mxPoint x="269" y="164" as="targetPoint" />
          </mxGeometry>
        </mxCell>
        <mxCell id="NWXqaKzSs_AKC4-fesMb-28" value="&lt;span style=&quot;font-size: 16px;&quot;&gt;Lookahead routing&lt;/span&gt;" style="text;html=1;align=center;verticalAlign=middle;resizable=0;points=[];autosize=1;strokeColor=none;fillColor=none;" vertex="1" parent="1">
          <mxGeometry x="445" y="310" width="160" height="30" as="geometry" />
        </mxCell>
        <mxCell id="NWXqaKzSs_AKC4-fesMb-29" value="&lt;span style=&quot;font-size: 16px;&quot;&gt;Speculative routing&lt;/span&gt;" style="text;html=1;align=center;verticalAlign=middle;resizable=0;points=[];autosize=1;strokeColor=none;fillColor=none;" vertex="1" parent="1">
          <mxGeometry x="450" y="380" width="160" height="30" as="geometry" />
        </mxCell>
        <mxCell id="NWXqaKzSs_AKC4-fesMb-30" value="&lt;span style=&quot;font-size: 16px;&quot;&gt;Configurable routing&lt;/span&gt;" style="text;html=1;align=center;verticalAlign=middle;resizable=0;points=[];autosize=1;strokeColor=none;fillColor=none;" vertex="1" parent="1">
          <mxGeometry x="450" y="450" width="170" height="30" as="geometry" />
        </mxCell>
        <mxCell id="NWXqaKzSs_AKC4-fesMb-31" value="&lt;font style=&quot;font-size: 16px;&quot;&gt;Compact encoding&lt;/font&gt;" style="text;html=1;align=center;verticalAlign=middle;resizable=0;points=[];autosize=1;strokeColor=none;fillColor=none;" vertex="1" parent="1">
          <mxGeometry x="450" y="520" width="160" height="30" as="geometry" />
        </mxCell>
        <mxCell id="NWXqaKzSs_AKC4-fesMb-32" value="" style="endArrow=classic;html=1;rounded=0;entryX=-0.005;entryY=0.543;entryDx=0;entryDy=0;entryPerimeter=0;exitX=0.999;exitY=0.219;exitDx=0;exitDy=0;exitPerimeter=0;" edge="1" parent="1" source="NWXqaKzSs_AKC4-fesMb-26" target="NWXqaKzSs_AKC4-fesMb-28">
          <mxGeometry width="50" height="50" relative="1" as="geometry">
            <mxPoint x="388" y="175" as="sourcePoint" />
            <mxPoint x="470" y="255" as="targetPoint" />
          </mxGeometry>
        </mxCell>
        <mxCell id="NWXqaKzSs_AKC4-fesMb-33" value="" style="endArrow=classic;html=1;rounded=0;entryX=-0.002;entryY=0.476;entryDx=0;entryDy=0;entryPerimeter=0;exitX=1.003;exitY=0.486;exitDx=0;exitDy=0;exitPerimeter=0;" edge="1" parent="1" source="NWXqaKzSs_AKC4-fesMb-26" target="NWXqaKzSs_AKC4-fesMb-29">
          <mxGeometry width="50" height="50" relative="1" as="geometry">
            <mxPoint x="415" y="427" as="sourcePoint" />
            <mxPoint x="449" y="336" as="targetPoint" />
          </mxGeometry>
        </mxCell>
        <mxCell id="NWXqaKzSs_AKC4-fesMb-34" value="" style="endArrow=classic;html=1;rounded=0;entryX=-0.006;entryY=0.486;entryDx=0;entryDy=0;entryPerimeter=0;exitX=1.003;exitY=0.657;exitDx=0;exitDy=0;exitPerimeter=0;" edge="1" parent="1" source="NWXqaKzSs_AKC4-fesMb-26" target="NWXqaKzSs_AKC4-fesMb-30">
          <mxGeometry width="50" height="50" relative="1" as="geometry">
            <mxPoint x="416" y="435" as="sourcePoint" />
            <mxPoint x="450" y="404" as="targetPoint" />
          </mxGeometry>
        </mxCell>
        <mxCell id="NWXqaKzSs_AKC4-fesMb-35" value="" style="endArrow=classic;html=1;rounded=0;entryX=-0.002;entryY=0.571;entryDx=0;entryDy=0;entryPerimeter=0;exitX=0.999;exitY=0.829;exitDx=0;exitDy=0;exitPerimeter=0;" edge="1" parent="1" source="NWXqaKzSs_AKC4-fesMb-26" target="NWXqaKzSs_AKC4-fesMb-31">
          <mxGeometry width="50" height="50" relative="1" as="geometry">
            <mxPoint x="416" y="440" as="sourcePoint" />
            <mxPoint x="449" y="475" as="targetPoint" />
          </mxGeometry>
        </mxCell>
      </root>
    </mxGraphModel>
  </diagram>
</mxfile>
